<svg width="138" height="141" viewBox="0 0 138 141" fill="none" xmlns="http://www.w3.org/2000/svg">
<path d="M126.034 62.2517L69.2784 5.49647L63.7778 0L1.52624 62.2517C-0.508748 64.2922 -0.508748 67.5955 1.52624 69.632L40.5584 108.663L63.7778 131.888L126.034 69.632C128.07 67.5955 128.07 64.2922 126.034 62.2517V62.2517ZM63.7778 85.4378L44.2833 65.9446L63.7778 46.4444L83.2766 65.9446L63.7778 85.4378Z" fill="#2684FF"/>
<path d="M63.7778 46.4444C51.0148 33.6758 50.9496 12.996 63.642 0.152481L20.9724 42.8056L44.1973 66.0305L63.7778 46.4444Z" fill="url(#paint0_linear_3_103)"/>
<path d="M83.3307 65.8892L63.7778 85.4378C69.9397 91.594 73.4053 99.9503 73.4053 108.663C73.4053 117.375 69.9397 125.726 63.7778 131.888L106.55 89.1141L83.3307 65.8892V65.8892Z" fill="url(#paint1_linear_3_103)"/>
<path d="M134.237 86.5859C135.894 86.5859 137.237 87.9291 137.237 89.5859V102.896C137.237 104.553 135.894 105.896 134.237 105.896H51.9631C50.3063 105.896 48.9631 104.553 48.9631 102.896V89.5859C48.9631 87.9291 50.3063 86.5859 51.9631 86.5859H134.237Z" fill="#EE8F00"/>
<path d="M84.4109 55.1039C84.4109 53.447 85.7541 52.1039 87.4109 52.1039H100.721C102.378 52.1039 103.721 53.447 103.721 55.1039V137.378C103.721 139.035 102.378 140.378 100.721 140.378H87.4109C85.7541 140.378 84.4109 139.035 84.4109 137.378V55.1039Z" fill="#EE8F00"/>
<path fill-rule="evenodd" clip-rule="evenodd" d="M87.4109 52.1039C85.7541 52.1039 84.4109 53.447 84.4109 55.1039V86.5859H51.9631C50.3063 86.5859 48.9631 87.9291 48.9631 89.5859V102.896C48.9631 104.553 50.3063 105.896 51.9631 105.896H84.4109L84.4109 105.925C98.0244 114.513 102.624 128.999 103.514 137.389C103.689 139.036 102.342 140.378 100.686 140.378H100.721C102.378 140.378 103.721 139.035 103.721 137.378V105.896H134.237C135.894 105.896 137.237 104.553 137.237 102.896V89.5859C137.237 87.9291 135.894 86.5859 134.237 86.5859H103.721V55.1039C103.721 53.447 102.378 52.1039 100.721 52.1039H87.4109Z" fill="url(#paint2_linear_3_103)"/>
<path d="M103.721 86.5859C90.131 77.9894 85.5405 63.4892 84.6521 55.0931C84.4778 53.4454 85.8248 52.1039 87.4817 52.1039H100.721C102.378 52.1039 103.721 53.447 103.721 55.1039V86.5859Z" fill="url(#paint3_linear_3_103)"/>
<defs>
<linearGradient id="paint0_linear_3_103" x1="55.3981" y1="31.6226" x2="33.0709" y2="53.9442" gradientUnits="userSpaceOnUse">
<stop stop-color="#0052CC"/>
<stop offset="1" stop-color="#2684FF"/>
</linearGradient>
<linearGradient id="paint1_linear_3_103" x1="72.3987" y1="100.048" x2="94.6813" y2="77.7655" gradientUnits="userSpaceOnUse">
<stop stop-color="#0052CC"/>
<stop offset="1" stop-color="#2684FF"/>
</linearGradient>
<linearGradient id="paint2_linear_3_103" x1="93.1002" y1="140.378" x2="93.1002" y2="52.1039" gradientUnits="userSpaceOnUse">
<stop stop-color="#653E03"/>
<stop offset="0.463542" stop-color="#EE8F00"/>
</linearGradient>
<linearGradient id="paint3_linear_3_103" x1="99.1761" y1="86.5859" x2="103.712" y2="53.3163" gradientUnits="userSpaceOnUse">
<stop offset="0.151042" stop-color="#8F5701"/>
<stop offset="0.885417" stop-color="#EE8F01"/>
</linearGradient>
</defs>
</svg>
