<svg width="307" height="89" viewBox="0 0 307 89" fill="none" xmlns="http://www.w3.org/2000/svg">
<path d="M41.2931 60.4484V3.10388C41.2931 1.44703 42.6363 0.103882 44.2931 0.103882H56.1752C57.8321 0.103882 59.1752 1.44703 59.1752 3.10388V60.4484C59.1752 66.2696 57.8993 71.2734 55.3476 75.4598C52.7959 79.6064 49.3072 82.796 44.8815 85.0288C40.4957 87.2616 35.5517 88.3779 30.0496 88.3779C24.348 88.3779 19.3044 87.421 14.9186 85.5072C10.5328 83.5934 7.08395 80.6629 4.57209 76.7157C2.48412 73.4015 1.26395 69.3572 0.911593 64.5828C0.789645 62.9305 2.14744 61.5847 3.80429 61.5847H15.806C17.4628 61.5847 18.7779 62.9326 18.9548 64.5799C19.1506 66.4031 19.5396 67.9365 20.1217 69.1801C21.0387 71.0541 22.3346 72.3897 24.0091 73.1871C25.6837 73.9846 27.6972 74.3833 30.0496 74.3833C32.3222 74.3833 34.2958 73.845 35.9704 72.7685C37.645 71.692 38.9408 70.1171 39.8578 68.0438C40.8147 65.9705 41.2931 63.4387 41.2931 60.4484Z" fill="black"/>
<path d="M90.5638 0.103882C92.2207 0.103882 93.5638 1.44703 93.5638 3.10388V84.1818C93.5638 85.8387 92.2207 87.1818 90.5638 87.1818H78.6817C77.0249 87.1818 75.6817 85.8387 75.6817 84.1818V3.10388C75.6817 1.44703 77.0249 0.103882 78.6817 0.103882H90.5638Z" fill="black"/>
<path d="M110.369 4.10388C110.369 1.89474 112.16 0.103882 114.369 0.103882H142.844C149.503 0.103882 155.224 1.10065 160.009 3.0942C164.833 5.08774 168.541 8.03818 171.133 11.9455C173.724 15.8529 175.02 20.6573 175.02 26.3588C175.02 31.0237 174.223 35.0307 172.628 38.3799C171.073 41.6892 168.86 44.4602 165.989 46.693C163.158 48.8859 159.829 50.6402 156.002 51.9559L150.32 54.9462H122.091L121.972 40.9516H142.964C146.114 40.9516 148.725 40.3934 150.798 39.277C152.872 38.1606 154.427 36.6056 155.463 34.6121C156.54 32.6186 157.078 30.3061 157.078 27.6746C157.078 24.8836 156.56 22.4714 155.523 20.438C154.486 18.4046 152.912 16.8496 150.798 15.7731C148.685 14.6966 146.034 14.1584 142.844 14.1584H128.311V83.1818C128.311 85.391 126.52 87.1818 124.311 87.1818H114.369C112.16 87.1818 110.369 85.391 110.369 83.1818V4.10388ZM161.498 87.1818C159.997 87.1818 158.621 86.3406 157.937 85.0035L139.196 48.3675L158.155 48.2479L175.238 81.3472C176.612 84.0095 174.68 87.1818 171.684 87.1818H161.498Z" fill="black"/>
<path fill-rule="evenodd" clip-rule="evenodd" d="M222.21 21.1856L243.012 84.4316C243.552 86.0727 245.084 87.1818 246.812 87.1818H257.29C260.081 87.1818 262.014 84.3961 261.037 81.7818L231.492 2.7039C230.907 1.14033 229.414 0.103882 227.745 0.103882H222.725H216.615C214.943 0.103882 213.448 1.14358 212.866 2.71068L183.483 81.7886C182.512 84.4018 184.445 87.1818 187.233 87.1818H197.66C199.389 87.1818 200.922 86.0713 201.46 84.4288L222.21 21.1856Z" fill="black"/>
<path d="M303.131 34.513C304.765 34.513 306.09 35.8379 306.09 37.4724V50.602C306.09 52.2364 304.765 53.5613 303.131 53.5613H221.972C220.337 53.5613 219.012 52.2364 219.012 50.602V37.4724C219.012 35.8379 220.337 34.513 221.972 34.513H303.131Z" fill="#EE8F00"/>
<path d="M253.98 3.45752C253.98 1.82312 255.305 0.498179 256.939 0.498179H270.069C271.703 0.498179 273.028 1.82312 273.028 3.45753V84.6168C273.028 86.2512 271.703 87.5761 270.069 87.5761H256.939C255.305 87.5761 253.98 86.2512 253.98 84.6168V3.45752Z" fill="#EE8F00"/>
<path d="M256.939 0.498179C255.305 0.498179 253.98 1.82312 253.98 3.45752V34.513H221.972C220.337 34.513 219.012 35.8379 219.012 37.4724V50.602C219.012 52.2364 220.337 53.5613 221.972 53.5613H253.98V53.5898C267.482 62.1082 271.995 76.5078 272.838 84.7623C272.9 85.3646 272.747 85.9232 272.445 86.3812C272.811 85.8886 273.028 85.278 273.028 84.6168V53.5613H303.131C304.765 53.5613 306.09 52.2364 306.09 50.602V37.4724C306.09 35.8379 304.765 34.513 303.131 34.513H273.028V3.45753C273.028 1.82312 271.703 0.498179 270.069 0.498179H256.939Z" fill="url(#paint0_linear_2_5)"/>
<path d="M273.028 34.513C259.549 25.9867 255.045 11.5731 254.204 3.31197C254.046 1.75981 255.314 0.498169 256.874 0.498169H270.203C271.763 0.498169 273.028 1.76295 273.028 3.32313V34.513Z" fill="url(#paint1_linear_2_5)"/>
<defs>
<linearGradient id="paint0_linear_2_5" x1="262.551" y1="87.5761" x2="262.551" y2="0.498169" gradientUnits="userSpaceOnUse">
<stop stop-color="#653E03"/>
<stop offset="0.463542" stop-color="#EE8F00"/>
</linearGradient>
<linearGradient id="paint1_linear_2_5" x1="268.545" y1="34.513" x2="273.019" y2="1.69422" gradientUnits="userSpaceOnUse">
<stop offset="0.151042" stop-color="#8F5701"/>
<stop offset="0.885417" stop-color="#EE8F01"/>
</linearGradient>
</defs>
</svg>
